<svg xmlns:rdf="http://www.w3.org/1999/02/22-rdf-syntax-ns#" style="fill-rule:evenodd;clip-rule:evenodd;image-rendering:optimizeQuality;text-rendering:geometricPrecision;shape-rendering:geometricPrecision" xmlns="http://www.w3.org/2000/svg" onload="reSize(evt)" xml:space="preserve" height="260" width="820" version="1.1" xmlns:cc="http://creativecommons.org/ns#" xmlns:dc="http://purl.org/dc/elements/1.1/"><title>Post Hoc - Confeccoes e Serigrafia</title><metadata><rdf:RDF><cc:Work rdf:about=""><dc:format>image/svg+xml</dc:format><dc:type rdf:resource="http://purl.org/dc/dcmitype/StillImage"/><dc:title>Post Hoc - Confeccoes e Serigrafia</dc:title><dc:creator><cc:Agent><dc:title>Dyonnatan Ferreira Maia</dc:title></cc:Agent></dc:creator><dc:rights><cc:Agent><dc:title>All rights reserved</dc:title></cc:Agent></dc:rights><dc:language>Latim, Portuguese</dc:language><dc:subject><rdf:Bag><rdf:li>Post Hoc</rdf:li><rdf:li>Serigrafia</rdf:li><rdf:li>Confecções</rdf:li><rdf:li>marca</rdf:li></rdf:Bag></dc:subject><dc:date>February, 2014</dc:date></cc:Work></rdf:RDF></metadata><g transform="matrix(.01439 0 0 .01431 154.4 -159.3)"><path style="fill:#ebe5b9;fill-rule:nonzero" class="fil1" d="m-249 2.808e4h4.195e4c2126 0 3866-1740 3866-3866v-1.186e4h-4.195e4c-2126 0-3866 1740-3866 3867v1.186e4z"/><path style="fill:#0b0b0d;fill-rule:nonzero" class="fil2" d="m182 2.766e4h2.399e4v-1.488e4h-2.034e4c-2013 0-3659 1646-3659 3659v1.122e4z"/><path style="fill:#ebe5b9;fill-rule:nonzero" class="fil3" d="m1.362e4 2.325e4c-288 328-622 579-1002 749-379 169-770 264-1170 284h-69-70-69-69c-401-20-791-118-1171-292s-713-423-1001-741c-298-349-518-742-662-1173s-216-869-216-1310c0-896 277-1709 832-2445 554-736 1340-1103 2356-1103 1027 0 1818 369 2372 1111 555 741 832 1557 832 2452-10 441-88 877-231 1303-144 426-365 816-662 1165zm-6124-3190c0 981-424 1792-1272 2433-887 670-1965 1332-2983 1794v2155h-1604v-2155-953-6112h1604 1572c781 0 1424 288 1927 864 504 575 756 1233 756 1974zm-1588 0c0-40-3-80-8-120s-7-80-7-120c-52-260-170-498-355-713-185-216-427-323-725-323h-1572v3754c699-361 1318-746 1857-1156 540-411 810-852 810-1322zm1.683e4 -1222h-1047v3017c0 225 82 420 246 585 165 164 360 246 586 246v1600c-668 0-1240-238-1718-715-477-477-716-1049-716-1716v-3017h-955v-1616h955v-3198h1602v3198h1047v1616zm-4020 0h-254-254-269-255c-215 0-390 67-523 200-134 133-200 287-200 462 0 72 12 143 38 215s69 144 131 216c82 102 167 200 254 292s172 185 254 277c206 216 357 457 455 724 97 266 141 538 131 815v70 69c-21 277-93 549-216 816-123 266-293 497-508 692-349 308-717 485-1102 531s-788 69-1209 69h-138-154v-1600h246 262 246 247 54 54c82-11 159-28 231-54s133-64 185-116c71-71 125-151 161-238 36-90 54-180 54-272-10-82-28-159-54-231-25-72-64-138-115-200-41-51-85-100-131-146s-90-98-131-149c-51-41-98-87-139-139-41-51-82-97-123-138-195-226-341-467-439-726-97-257-146-518-146-785 0-577 208-1100 624-1567 415-470 983-703 1701-703h1032v1616zm-6299 3355c144-174 257-374 339-600s128-457 139-693v-77-61c0-482-131-924-393-1324s-660-600-1194-600-934 203-1201 608-395 849-385 1331c0 257 38 511 116 762 76 252 197 470 361 654 144 164 316 288 516 370 201 82 403 118 609 107 205 0 405-38 600-115s360-198 493-362z"/><path style="fill:#0b0b0d;fill-rule:nonzero" class="fil2" d="m-2122 2.766e4h-2202v-4364-172c1-180 0-362 8-537 15-313 28-592-8-840-34-235-103-463-211-667-104-197-233-371-412-508h-1c-68-58-139-109-213-154l-4-3c-268-162-573-244-916-244-480 0-893 169-1238 508-305 298-476 657-512 1077v425c-725 377-1474 721-2209 1072v-1.026e4h2202v583h7v1584 46 2146 47 944c139-69 281-128 427-176 148-50 293-89 434-117 141-42 286-70 434-84 64-6 126-11 188-15h4 1 3 3 1 4l2-1h2 4 1 2 4 1 3l4-1h4 2 2 4 1 3l3-1h1 3 4 4 2 2 4 1 3l3-1h1 3 3 1 4 2 2 4 1 3 3l1-1h3 3 1 4 2 2 4 1 2 4 4 3 1 4l2-1h2 3 2 2 4 4 3 1 4 2 1 4 1 3 4 3 3 1 4l2-1h2 4 1 2 4 4 3 1 4 2 1 4 1 3 4c15 0 29 0 44 1h8 42l9 1c13 0 26 0 40 1h4c14 0 28 1 42 1l10 1c14 1 28 1 42 2h6c13 1 25 2 38 3h8c14 1 27 2 41 3l10 1c13 1 27 2 41 4h5c12 1 25 2 37 4l10 1c13 1 27 3 40 4l10 1c12 2 25 3 37 5h5c13 2 26 4 39 6l12 1c13 2 25 4 38 6l11 2c11 1 21 3 31 4l11 2c12 2 25 4 37 6l13 3c12 2 24 4 37 6 3 1 7 2 11 2 10 2 19 4 29 6l14 3c11 2 23 5 34 7l15 3c10 2 20 4 29 7l18 4c9 2 17 4 26 6 6 1 11 2 17 4 10 2 21 5 32 8l16 4 24 6c7 2 14 4 22 6s17 4 26 7c5 1 11 3 16 4 11 3 21 6 31 9 6 2 12 4 18 5l21 6c7 3 14 5 21 7 9 3 18 6 27 8l18 6c7 3 15 5 22 7 9 3 18 6 27 9l17 6c7 2 14 5 20 7 10 3 19 7 29 10 6 2 12 5 19 7 6 2 13 5 19 7 10 3 19 7 28 11l17 6c7 3 14 5 21 8s15 6 22 9c9 3 17 6 26 10l15 6c11 5 21 9 31 13l17 7c6 3 13 6 20 9 5 2 9 4 14 6 11 5 22 10 34 15l14 6c9 5 18 9 28 13 6 3 12 6 19 9s14 7 21 10c4 2 9 4 13 7 11 5 22 10 33 16l14 6c7 4 14 7 21 11 348 176 678 408 990 697 499 459 843 1e3 1032 1621 4 10 7 21 10 32l3 9c3 13 7 25 10 38l4 13c3 10 6 21 9 31l4 17 9 33 3 13c2 10 5 20 7 30 2 8 4 15 6 22 2 9 4 19 6 28 2 8 4 16 5 24 2 8 4 16 5 23 2 8 4 16 5 23 2 8 4 16 5 25 2 8 4 17 6 26 1 8 2 16 4 24 2 9 4 19 5 29 1 5 2 11 3 17 2 11 4 21 6 31l3 20c2 10 3 21 5 31l3 17c1 12 3 24 5 37l2 13c1 12 3 24 4 35l2 16c2 12 4 25 5 37l1 11c2 14 3 28 5 42l1 11c1 13 3 27 4 40l1 10c1 14 2 29 3 43l1 9 3 45 1 6c1 16 2 31 3 46v5c1 16 2 32 2 48l1 6c0 16 1 33 2 50v1c0 17 1 34 1 51v3c0 17 1 34 1 51v4 52 2553 3194zm-5346-1.245e4h1796c1073 0 1955 396 2647 1187 691 791 1037 1695 1037 2713 0 378-45 737-137 1078-202-560-540-1052-1012-1475-472-425-984-727-1536-909l-4-4c-254-296-586-444-995-444h-1796v-2146zm2815 7917c-1719 1155-3526 1970-5380 2874v-2393l2202-1094c970-455 1899-1026 2677-1689 293 224 457 580 512 966 51 351-10 815-11 1336zm-3178 2152v2599h-2202v-219h-7v-1287l2209-1093zm5636-4184c2 9 4 19 5 29l-5-29z"/><path style="fill:#0b0b0d;fill-rule:nonzero" class="fil2" d="m3.142e4 2.428e4h-1602v-4171c0-359-123-662-370-908-246-246-549-369-908-369-349 0-650 123-901 369-252 246-378 549-378 908v4171h-1602v-1.026e4h1602v3490c103-51 208-95 316-131s213-64 316-85c102-30 208-51 316-61 107-10 213-15 315-15 760 0 1433 269 2018 810 585 539 878 1231 878 2073v4181zm6053-1033c-287 328-621 579-1001 749-380 169-770 264-1171 284h-69-69-70-69c-400-20-791-118-1171-292-379-174-713-423-1001-741-297-349-518-742-662-1173s-216-869-216-1311c0-895 278-1708 832-2444 555-737 1340-1103 2357-1103 1026 0 1817 369 2372 1110 554 742 831 1557 831 2453-10 441-87 877-231 1303-143 426-364 816-662 1165zm-1201-1060c143-174 256-374 338-600 83-226 129-457 139-693v-77-61c0-483-131-924-393-1324-261-400-659-600-1193-600s-935 202-1202 608c-267 405-395 849-385 1331 0 257 39 511 116 762s197 469 362 654c143 164 315 287 516 370 200 82 403 118 608 107 205 0 406-38 601-115s359-198 493-362zm7408-3355h-1086-1086c-338 0-582 123-731 369s-239 518-270 816v92 93c0 390 54 743 162 1062 108 318 269 584 485 800 205 195 467 346 786 454 318 108 703 162 1155 162h570v1600h-570c-678 0-1268-95-1771-284-504-190-930-457-1279-796-380-379-665-828-855-1341-190-516-285-1070-285-1665 0-75 3-144 8-211 5-66 8-135 8-207 41-308 115-608 223-903 108-293 259-557 455-793 225-269 495-480 808-634s680-230 1101-230h2172v1616z"/></g><g transform="matrix(.8264 0 0 1.21 -.000005 -2.593)"><path d="m643.1 188.4q-1.253 0.65-2.612 0.9808-1.359 0.3309-2.836 0.3309-4.408 0-6.984-2.458-2.576-2.47-2.576-6.689 0-4.231 2.576-6.689 2.576-2.47 6.984-2.47 1.477 0 2.836 0.3309t2.612 0.9808v3.652q-1.264-0.8627-2.493-1.264-1.229-0.4018-2.588-0.4018-2.434 0-3.829 1.56-1.394 1.56-1.394 4.302 0 2.73 1.394 4.29t3.829 1.56q1.359 0 2.588-0.4018t2.493-1.264v3.652z"/><path d="m653 178.8q-1.406 0-2.151 1.016-0.7327 1.004-0.7327 2.907t0.7327 2.919q0.7445 1.004 2.151 1.004 1.383 0 2.115-1.004 0.7327-1.016 0.7327-2.919t-0.7327-2.907q-0.7327-1.016-2.115-1.016zm0-3.025q3.415 0 5.33 1.844 1.926 1.844 1.926 5.105 0 3.262-1.926 5.105-1.914 1.844-5.33 1.844-3.427 0-5.365-1.844-1.926-1.844-1.926-5.105 0-3.262 1.926-5.105 1.938-1.844 5.365-1.844z"/><path d="m676.7 181.3v8.059h-4.254v-1.312-4.857q0-1.714-0.0827-2.363-0.0709-0.65-0.26-0.9572-0.2482-0.4136-0.6736-0.6381-0.4254-0.2363-0.969-0.2363-1.324 0-2.08 1.028-0.7563 1.016-0.7563 2.824v6.511h-4.231v-13.24h4.231v1.938q0.9572-1.158 2.033-1.702 1.075-0.5554 2.375-0.5554 2.293 0 3.474 1.406 1.194 1.406 1.194 4.089z"/><path d="m689.3 171v2.777h-2.34q-0.8981 0-1.253 0.3309-0.3545 0.3191-0.3545 1.123v0.9218h3.616v3.025h-3.616v10.21h-4.231v-10.21h-2.103v-3.025h2.103v-0.9218q0-2.163 1.205-3.191 1.205-1.04 3.734-1.04h3.238z"/><path d="m704.4 182.7v1.205h-9.891q0.1536 1.489 1.075 2.233 0.9218 0.7445 2.576 0.7445 1.335 0 2.73-0.39 1.406-0.4018 2.883-1.205v3.262q-1.501 0.5672-3.002 0.8508-1.501 0.2954-3.002 0.2954-3.592 0-5.59-1.82-1.985-1.832-1.985-5.129 0-3.238 1.95-5.093 1.962-1.855 5.389-1.855 3.12 0 4.987 1.879 1.879 1.879 1.879 5.022zm-4.349-1.406q0-1.205-0.709-1.938-0.6972-0.7445-1.832-0.7445-1.229 0-1.997 0.6972-0.7681 0.6854-0.9572 1.985h5.495z"/><path d="m718.2 176.5v3.451q-0.8627-0.5909-1.737-0.8745-0.8627-0.2836-1.796-0.2836-1.773 0-2.765 1.04-0.9808 1.028-0.9808 2.883t0.9808 2.895q0.9926 1.028 2.765 1.028 0.9926 0 1.879-0.2954 0.8981-0.2954 1.654-0.8745v3.462q-0.9926 0.3663-2.021 0.5436-1.016 0.1891-2.044 0.1891-3.581 0-5.601-1.832-2.021-1.844-2.021-5.117t2.021-5.105q2.021-1.844 5.601-1.844 1.04 0 2.044 0.1891 1.016 0.1773 2.021 0.5436z"/><path d="m732.6 176.5v3.451q-0.8627-0.5909-1.737-0.8745-0.8627-0.2836-1.796-0.2836-1.773 0-2.765 1.04-0.9808 1.028-0.9808 2.883t0.9808 2.895q0.9926 1.028 2.765 1.028 0.9926 0 1.879-0.2954 0.8981-0.2954 1.654-0.8745v3.462q-0.9926 0.3663-2.021 0.5436-1.016 0.1891-2.044 0.1891-3.581 0-5.601-1.832-2.021-1.844-2.021-5.117t2.021-5.105q2.021-1.844 5.601-1.844 1.04 0 2.044 0.1891 1.016 0.1773 2.021 0.5436zm-3.439 12.82q0.6854 0.7327 1.004 1.359 0.3309 0.6263 0.3309 1.182 0 1.123-0.7327 1.654-0.7209 0.5436-2.222 0.5436-0.5672 0-1.17-0.0827-0.6027-0.0709-1.217-0.2245l-0.0118-1.796q0.5909 0.1891 1.075 0.2718 0.4963 0.0945 0.8863 0.0945 0.6854 0 1.064-0.2718 0.39-0.2718 0.39-0.7445 0-0.3072-0.26-0.7918-0.2482-0.4845-0.7799-1.194h1.643z"/><path d="m742.6 178.8q-1.406 0-2.151 1.016-0.7327 1.004-0.7327 2.907t0.7327 2.919q0.7445 1.004 2.151 1.004 1.383 0 2.115-1.004 0.7327-1.016 0.7327-2.919t-0.7327-2.907q-0.7327-1.016-2.115-1.016zm0-3.025q3.415 0 5.33 1.844 1.926 1.844 1.926 5.105 0 3.262-1.926 5.105-1.914 1.844-5.33 1.844-3.427 0-5.365-1.844-1.926-1.844-1.926-5.105 0-3.262 1.926-5.105 1.938-1.844 5.365-1.844zm-0.0118-2.564-0.65-0.4372q-0.0473-0.0236-0.1182-0.0709-0.5554-0.3663-0.8508-0.3663-0.4254 0-0.65 0.3663-0.2245 0.3663-0.2245 1.064v0.0945h-1.643q0-1.607 0.6027-2.482 0.6145-0.8745 1.714-0.8745 0.4254 0 0.8508 0.1654 0.4372 0.1536 0.9218 0.5081l0.7209 0.5082q0.26 0.1773 0.4727 0.2718 0.2245 0.0945 0.4018 0.0945 0.4254 0 0.6618-0.3782 0.2363-0.3782 0.2363-1.052v-0.0945h1.643q0 1.607-0.6145 2.482-0.6027 0.8745-1.702 0.8745-0.4254 0-0.8272-0.1418-0.39-0.1418-0.9454-0.5318z"/><path d="m766.1 182.7v1.205h-9.891q0.1536 1.489 1.075 2.233 0.9218 0.7445 2.576 0.7445 1.335 0 2.73-0.39 1.406-0.4018 2.883-1.205v3.262q-1.501 0.5672-3.002 0.8508-1.501 0.2954-3.002 0.2954-3.592 0-5.59-1.82-1.985-1.832-1.985-5.129 0-3.238 1.95-5.093 1.962-1.855 5.389-1.855 3.12 0 4.987 1.879 1.879 1.879 1.879 5.022zm-4.349-1.406q0-1.205-0.709-1.938-0.6972-0.7445-1.832-0.7445-1.229 0-1.997 0.6972-0.7681 0.6854-0.9572 1.985h5.495z"/><path d="m779.7 176.5v3.214q-1.359-0.5672-2.623-0.8508t-2.387-0.2836q-1.205 0-1.796 0.3072-0.579 0.2954-0.579 0.9218 0 0.5082 0.4372 0.78 0.4491 0.2718 1.595 0.4018l0.7445 0.1064q3.25 0.4136 4.372 1.359 1.123 0.9454 1.123 2.966 0 2.115-1.56 3.179t-4.656 1.064q-1.312 0-2.718-0.2127-1.394-0.2009-2.872-0.6145v-3.214q1.264 0.6145 2.588 0.9218 1.335 0.3072 2.706 0.3072 1.241 0 1.867-0.3427 0.6263-0.3427 0.6263-1.016 0-0.5672-0.4372-0.839-0.4254-0.2836-1.714-0.4372l-0.7445-0.0945q-2.824-0.3545-3.959-1.312-1.134-0.9572-1.134-2.907 0-2.103 1.442-3.12 1.442-1.016 4.42-1.016 1.17 0 2.458 0.1773t2.801 0.5554z"/><path d="m805.4 182.7v1.205h-9.891q0.1536 1.489 1.075 2.233 0.9218 0.7445 2.576 0.7445 1.335 0 2.73-0.39 1.406-0.4018 2.883-1.205v3.262q-1.501 0.5672-3.002 0.8508-1.501 0.2954-3.002 0.2954-3.592 0-5.59-1.82-1.985-1.832-1.985-5.129 0-3.238 1.95-5.093 1.962-1.855 5.389-1.855 3.12 0 4.987 1.879 1.879 1.879 1.879 5.022zm-4.349-1.406q0-1.205-0.709-1.938-0.6972-0.7445-1.832-0.7445-1.229 0-1.997 0.6972-0.7681 0.6854-0.9572 1.985h5.495z"/><path d="m829.4 172.3v3.734q-1.454-0.65-2.836-0.9808-1.383-0.3309-2.612-0.3309-1.631 0-2.411 0.4491-0.78 0.449-0.78 1.394 0 0.709 0.52 1.111 0.5318 0.39 1.914 0.6736l1.938 0.39q2.943 0.5909 4.183 1.796 1.241 1.205 1.241 3.427 0 2.919-1.737 4.349-1.725 1.418-5.282 1.418-1.678 0-3.368-0.3191t-3.38-0.9454v-3.841q1.69 0.8981 3.262 1.359 1.584 0.4491 3.049 0.4491 1.489 0 2.281-0.4963 0.7918-0.4963 0.7918-1.418 0-0.8272-0.5436-1.276-0.5318-0.4491-2.139-0.8036l-1.761-0.39q-2.647-0.5672-3.876-1.808-1.217-1.241-1.217-3.344 0-2.635 1.702-4.053t4.892-1.418q1.454 0 2.99 0.2245 1.536 0.2127 3.179 0.65z"/><path d="m847.6 182.7v1.205h-9.891q0.1536 1.489 1.075 2.233 0.9218 0.7445 2.576 0.7445 1.335 0 2.73-0.39 1.406-0.4018 2.883-1.205v3.262q-1.501 0.5672-3.002 0.8508-1.501 0.2954-3.002 0.2954-3.592 0-5.59-1.82-1.985-1.832-1.985-5.129 0-3.238 1.95-5.093 1.962-1.855 5.389-1.855 3.12 0 4.987 1.879 1.879 1.879 1.879 5.022zm-4.349-1.406q0-1.205-0.709-1.938-0.6972-0.7445-1.832-0.7445-1.229 0-1.997 0.6972-0.7681 0.6854-0.9572 1.985h5.495z"/><path d="m860.7 179.7q-0.5554-0.26-1.111-0.3782-0.5436-0.13-1.099-0.13-1.631 0-2.517 1.052-0.8745 1.04-0.8745 2.99v6.098h-4.231v-13.24h4.231v2.174q0.8154-1.3 1.867-1.891 1.064-0.6027 2.541-0.6027 0.2127 0 0.4609 0.0236 0.2482 0.0118 0.7209 0.0709l0.0118 3.829z"/><path d="m862.8 176.1h4.231v13.24h-4.231v-13.24zm0-5.152h4.231v3.451h-4.231v-3.451z"/><path d="m880.1 187.1q-0.8745 1.158-1.926 1.702-1.052 0.5436-2.434 0.5436-2.423 0-4.006-1.903-1.584-1.914-1.584-4.869 0-2.966 1.584-4.857 1.584-1.903 4.006-1.903 1.383 0 2.434 0.5436 1.052 0.5436 1.926 1.714v-1.962h4.254v11.9q0 3.191-2.021 4.869-2.009 1.69-5.838 1.69-1.241 0-2.399-0.1891t-2.328-0.579v-3.297q1.111 0.6381 2.174 0.9454 1.064 0.3191 2.139 0.3191 2.08 0 3.049-0.9099t0.969-2.848v-0.9099zm-2.789-8.237q-1.312 0-2.044 0.969-0.7327 0.969-0.7327 2.742 0 1.82 0.709 2.765 0.709 0.9336 2.068 0.9336 1.324 0 2.056-0.969 0.7327-0.969 0.7327-2.73 0-1.773-0.7327-2.742t-2.056-0.969z"/><path d="m898.3 179.7q-0.5554-0.26-1.111-0.3782-0.5436-0.13-1.099-0.13-1.631 0-2.517 1.052-0.8745 1.04-0.8745 2.99v6.098h-4.231v-13.24h4.231v2.174q0.8154-1.3 1.867-1.891 1.064-0.6027 2.541-0.6027 0.2127 0 0.4609 0.0236 0.2482 0.0118 0.7209 0.0709l0.0118 3.829z"/><path d="m906.3 183.4q-1.324 0-1.997 0.4491-0.6618 0.4491-0.6618 1.324 0 0.8036 0.5318 1.264 0.5436 0.4491 1.501 0.4491 1.194 0 2.009-0.8508 0.8154-0.8627 0.8154-2.151v-0.4845h-2.198zm6.464-1.595v7.551h-4.266v-1.962q-0.8508 1.205-1.914 1.761-1.064 0.5436-2.588 0.5436-2.056 0-3.344-1.194-1.276-1.205-1.276-3.12 0-2.328 1.595-3.415 1.607-1.087 5.034-1.087h2.493v-0.3309q0-1.004-0.7918-1.465-0.7918-0.4727-2.47-0.4727-1.359 0-2.529 0.2718t-2.174 0.8154v-3.226q1.359-0.3309 2.73-0.4963 1.371-0.1773 2.742-0.1773 3.581 0 5.164 1.418 1.595 1.406 1.595 4.585z"/><path d="m926.4 171h4.266v3.451h-4.266v-3.451zm-0.8745 0v2.777h-2.34q-0.8863 0-1.229 0.3309-0.3427 0.3191-0.3427 1.123v0.9218h9.052v13.24h-4.266v-10.21h-4.786v10.21h-4.266v-10.21h-2.08v-3.025h2.08v-0.9218q0-2.163 1.205-3.191 1.205-1.04 3.734-1.04h3.238z"/><path d="m940.7 183.4q-1.324 0-1.997 0.4491-0.6618 0.4491-0.6618 1.324 0 0.8036 0.5318 1.264 0.5436 0.4491 1.501 0.4491 1.194 0 2.009-0.8508 0.8154-0.8627 0.8154-2.151v-0.4845h-2.198zm6.464-1.595v7.551h-4.266v-1.962q-0.8508 1.205-1.914 1.761-1.064 0.5436-2.588 0.5436-2.056 0-3.344-1.194-1.276-1.205-1.276-3.12 0-2.328 1.595-3.415 1.607-1.087 5.034-1.087h2.493v-0.3309q0-1.004-0.7918-1.465-0.7918-0.4727-2.47-0.4727-1.359 0-2.529 0.2718t-2.174 0.8154v-3.226q1.359-0.3309 2.73-0.4963 1.371-0.1773 2.742-0.1773 3.581 0 5.164 1.418 1.595 1.406 1.595 4.585z"/></g></svg>
