<svg xmlns:rdf="http://www.w3.org/1999/02/22-rdf-syntax-ns#" style="fill-rule:evenodd;clip-rule:evenodd;image-rendering:optimizeQuality;text-rendering:geometricPrecision;shape-rendering:geometricPrecision" xmlns="http://www.w3.org/2000/svg" onload="reSize(evt)" xml:space="preserve" height="260" width="700" version="1.1" xmlns:cc="http://creativecommons.org/ns#" xmlns:dc="http://purl.org/dc/elements/1.1/"><title>Post Hoc - Confeccoes e Serigrafia</title><metadata><rdf:RDF><cc:Work rdf:about=""><dc:format>image/svg+xml</dc:format><dc:type rdf:resource="http://purl.org/dc/dcmitype/StillImage"/><dc:title>Post Hoc - Confeccoes e Serigrafia</dc:title><dc:creator><cc:Agent><dc:title>Dyonnatan Ferreira Maia</dc:title></cc:Agent></dc:creator><dc:rights><cc:Agent><dc:title>All rights reserved</dc:title></cc:Agent></dc:rights><dc:language>Latim, Portuguese</dc:language><dc:subject><rdf:Bag><rdf:li>Post Hoc</rdf:li><rdf:li>Serigrafia</rdf:li><rdf:li>Confecções</rdf:li><rdf:li>marca</rdf:li></rdf:Bag></dc:subject><dc:date>February, 2014</dc:date></cc:Work></rdf:RDF></metadata><path d="m130.4 229.7h-30.57v-60.24-2.374c0.01388-2.485 0-4.997 0.1111-7.413 0.2082-4.321 0.3887-8.172-0.1111-11.6-0.472-3.244-1.43-6.391-2.929-9.207-1.444-2.719-3.234-5.121-5.719-7.012h-0.01388c-0.9439-0.8006-1.929-1.505-2.957-2.126l-0.05553-0.0414c-3.72-2.236-7.954-3.368-12.72-3.368-6.663 0-12.4 2.333-17.18 7.012-4.234 4.114-6.607 9.069-7.107 14.87v5.867c-10.06 5.204-20.46 9.953-30.66 14.8v-141.6h30.57v8.048h0.09717v21.87 0.635 29.62 0.6488 13.03c1.929-0.9525 3.901-1.767 5.927-2.429 2.054-0.6902 4.067-1.229 6.024-1.615 1.957-0.5798 3.97-0.9663 6.024-1.16 0.8884-0.08283 1.749-0.1518 2.61-0.2071h0.05552 0.01388 0.04164 0.04164 0.01388 0.05552l0.02776-0.01381h0.02776 0.05552 0.01388 0.02776 0.05553 0.01388 0.04164l0.05552-0.0138h0.05552 0.02776 0.02776 0.05552 0.01388 0.04165l0.04164-0.01382h0.01388 0.04164 0.05552 0.05553 0.02776 0.02776 0.05552 0.01388 0.04164l0.04164-0.0138h0.01388 0.04164 0.04164 0.01388 0.05552 0.02776 0.02776 0.05552 0.01388 0.04164 0.04164l0.01388-0.01381h0.04164 0.04164 0.01388 0.05552 0.02776 0.02776 0.05553 0.01388 0.02776 0.05553 0.05553 0.04164 0.01388 0.05552l0.02776-0.0138h0.02776 0.04164 0.02776 0.02776 0.05552 0.05553 0.04164 0.01388 0.05552 0.02776 0.01388 0.05552 0.01388 0.04164 0.05552 0.04164 0.04164 0.01388 0.05552l0.02776-0.01381h0.02776 0.05552 0.01388 0.02776 0.05552 0.05553 0.04164 0.01388 0.05552 0.02776 0.01388 0.05552 0.01388 0.04164 0.05552c0.2082 0 0.4026 0 0.6108 0.01381h0.111 0.583l0.1249 0.0138c0.1805 0 0.3609 0 0.5552 0.01381h0.05552c0.1943 0 0.3887 0.0138 0.583 0.0138l0.1388 0.01382c0.1943 0.0138 0.3887 0.0138 0.583 0.0276h0.08329c0.1805 0.0138 0.347 0.0276 0.5275 0.0414h0.111c0.1943 0.01381 0.3748 0.02762 0.5691 0.04141l0.1388 0.01381c0.1805 0.01379 0.3748 0.0276 0.5691 0.05522h0.06941c0.1666 0.0138 0.347 0.0276 0.5136 0.05521l0.1388 0.0138c0.1805 0.01382 0.3748 0.04143 0.5552 0.05522l0.1388 0.01381c0.1666 0.02762 0.347 0.04141 0.5136 0.06902h0.06941c0.1805 0.0276 0.3609 0.05522 0.5414 0.08283l0.1666 0.01379c0.1805 0.02762 0.347 0.05522 0.5275 0.08283l0.1527 0.0276c0.1527 0.01382 0.2915 0.04143 0.4303 0.05522l0.1527 0.0276c0.1666 0.02762 0.347 0.05522 0.5136 0.08283l0.1805 0.04141c0.1666 0.0276 0.3331 0.05521 0.5136 0.08283 0.04164 0.01381 0.09717 0.0276 0.1527 0.0276 0.1388 0.0276 0.2637 0.05522 0.4026 0.08283l0.1943 0.04141c0.1527 0.0276 0.3193 0.06902 0.472 0.09664l0.2082 0.0414c0.1388 0.0276 0.2776 0.05522 0.4026 0.09664l0.2499 0.05522c0.1249 0.0276 0.236 0.05521 0.3609 0.08281 0.08329 0.01381 0.1527 0.0276 0.236 0.05521 0.1388 0.02762 0.2915 0.06903 0.4442 0.1104l0.2221 0.05521 0.3331 0.08283c0.09717 0.02762 0.1943 0.05522 0.3054 0.08283 0.111 0.02762 0.236 0.05522 0.3609 0.09662 0.06941 0.01381 0.1527 0.04143 0.2221 0.05522 0.1527 0.04141 0.2915 0.08283 0.4303 0.1242 0.08329 0.0276 0.1666 0.05521 0.2499 0.06902l0.2915 0.08283c0.09717 0.04141 0.1943 0.06902 0.2915 0.09662 0.1249 0.04143 0.2499 0.08283 0.3748 0.1104l0.2499 0.08283c0.09717 0.04141 0.2082 0.06902 0.3054 0.09663 0.1249 0.04141 0.2499 0.08281 0.3748 0.1242l0.236 0.08281c0.09717 0.0276 0.1943 0.06903 0.2776 0.09664 0.1388 0.0414 0.2637 0.09662 0.4026 0.138 0.08329 0.0276 0.1666 0.06902 0.2637 0.09664 0.08329 0.0276 0.1805 0.069 0.2637 0.09662 0.1388 0.04141 0.2637 0.09664 0.3887 0.1518l0.236 0.08281c0.09717 0.04143 0.1943 0.06903 0.2915 0.1104 0.09717 0.04141 0.2082 0.08283 0.3054 0.1242 0.1249 0.04141 0.236 0.08281 0.3609 0.138l0.2082 0.08283c0.1527 0.06903 0.2915 0.1242 0.4303 0.1794l0.236 0.09664c0.08329 0.0414 0.1805 0.08283 0.2776 0.1242 0.06941 0.0276 0.1249 0.0552 0.1943 0.0828 0.1527 0.069 0.3054 0.138 0.472 0.2071l0.1943 0.0828c0.1249 0.069 0.2499 0.1242 0.3887 0.1794 0.08329 0.0414 0.1666 0.0828 0.2637 0.1242 0.09717 0.0414 0.1943 0.0966 0.2915 0.138 0.05552 0.0276 0.1249 0.0552 0.1805 0.0966 0.1527 0.069 0.3054 0.138 0.4581 0.2208l0.1943 0.0828c0.09717 0.0552 0.1943 0.0966 0.2915 0.1518 4.831 2.43 9.411 5.632 13.74 9.621 6.927 6.336 11.7 13.8 14.33 22.38 0.0555 0.138 0.0972 0.2899 0.1388 0.4417l0.0416 0.1242c0.0416 0.1795 0.0972 0.3451 0.1388 0.5246l0.0555 0.1794c0.0416 0.138 0.0833 0.2899 0.1249 0.4279l0.0555 0.2347 0.1249 0.4555 0.0416 0.1794c0.0278 0.138 0.0694 0.2761 0.0972 0.4141 0.0278 0.1104 0.0555 0.207 0.0833 0.3037 0.0278 0.1242 0.0555 0.2623 0.0833 0.3865 0.0278 0.1104 0.0555 0.2209 0.0694 0.3313 0.0278 0.1104 0.0555 0.2209 0.0694 0.3175 0.0278 0.1104 0.0555 0.2209 0.0694 0.3175 0.0278 0.1104 0.0555 0.2209 0.0694 0.3451 0.0278 0.1104 0.0555 0.2347 0.0833 0.3589 0.0139 0.1104 0.0278 0.2209 0.0555 0.3313 0.0278 0.1242 0.0555 0.2623 0.0694 0.4003 0.0139 0.069 0.0278 0.1518 0.0416 0.2347 0.0278 0.1518 0.0555 0.2899 0.0833 0.4279l0.0416 0.2761c0.0278 0.138 0.0416 0.2899 0.0694 0.4279l0.0417 0.2347c0.0139 0.1656 0.0416 0.3313 0.0694 0.5108l0.0278 0.1794c0.0139 0.1656 0.0417 0.3313 0.0555 0.4832l0.0278 0.2209c0.0278 0.1656 0.0555 0.3451 0.0694 0.5107l0.0139 0.1519c0.0278 0.1932 0.0416 0.3865 0.0694 0.5798l0.0139 0.1518c0.0139 0.1794 0.0416 0.3727 0.0555 0.5522l0.0139 0.138c0.0139 0.1933 0.0278 0.4003 0.0416 0.5936l0.0139 0.1242 0.0416 0.6212 0.0139 0.0828c0.0139 0.2209 0.0278 0.4279 0.0416 0.635v0.069c0.0139 0.2209 0.0278 0.4417 0.0278 0.6626l0.0139 0.0828c0 0.2209 0.0139 0.4555 0.0278 0.6902v0.0138c0 0.2347 0.0139 0.4693 0.0139 0.704v0.0414c0 0.2346 0.0139 0.4693 0.0139 0.704v0.0552 0.7178 35.24 44.09zm-74.23-171.8h24.93c14.89 0 27.14 5.466 36.74 16.39 9.592 10.92 14.39 23.4 14.39 37.45 0 5.218-0.6246 10.17-1.902 14.88-2.804-7.73-7.496-14.52-14.05-20.36-6.552-5.867-13.66-10.04-21.32-12.55l-0.05552-0.05522c-3.526-4.086-8.134-6.129-13.81-6.129h-24.93v-29.62zm39.08 109.3c-23.86 15.9-48.95 27.1-74.68 39.6v-33.03l30.57-15.1c13.46-6.281 26.36-14.16 37.16-23.31 4.067 3.092 6.344 8.006 7.107 13.33 0.7079 4.845-0.1388 11.25-0.1527 18.44zm-44.11 29.71v35.88h-30.57v-3.023h-0.09718v-17.77l30.66-15.09zm78.23-57.76c0.0278 0.1242 0.0555 0.2623 0.0694 0.4003l-0.0694-0.4003z" style="fill:#0b0b0d;fill-rule:nonzero" class="fil2"/><g transform="translate(5e-6,-1.571343e-6)"><path style="fill:#ebe5b9;fill-rule:nonzero" class="fil1" d="m152.3 196.1h482.8c24.47 0 44.49-19.91 44.49-44.24v-135.7h-482.8c-24.47 0-44.49 19.91-44.49 44.26v135.7z"/><path style="fill:#0b0b0d;fill-rule:nonzero" class="fil2" d="m157.2 191.3h276.1v-170.3h-234.1c-23.17 0-42.11 18.84-42.11 41.88v128.4z"/><path style="fill:#ebe5b9;fill-rule:nonzero" class="fil3" d="m311.9 140.9c-3.314 3.754-7.158 6.626-11.53 8.572-4.362 1.934-8.862 3.021-13.47 3.25h-0.7941-0.8056-0.7941-0.7941c-4.615-0.2289-9.103-1.35-13.48-3.342-4.373-1.991-8.206-4.841-11.52-8.48-3.43-3.994-5.961-8.492-7.619-13.42-1.657-4.933-2.486-9.945-2.486-14.99 0-10.25 3.188-19.56 9.575-27.98 6.376-8.423 15.42-12.62 27.11-12.62 11.82 0 20.92 4.223 27.3 12.71 6.387 8.48 9.575 17.82 9.575 28.06-0.1151 5.047-1.013 10.04-2.658 14.91-1.657 4.875-4.201 9.339-7.619 13.33zm-70.5-36.5c0 11.23-4.88 20.51-14.64 27.84-10.21 7.668-22.61 15.24-34.33 20.53v24.66h-18.46v-24.66-10.91-69.95h18.46 18.09c8.988 0 16.39 3.296 22.18 9.888 5.8 6.581 8.7 14.11 8.7 22.59zm-18.28 0c0-0.4578-0.0345-0.9156-0.0921-1.373-0.0575-0.4578-0.0805-0.9156-0.0805-1.373-0.5984-2.976-1.956-5.699-4.086-8.16-2.129-2.472-4.914-3.697-8.344-3.697h-18.09v42.96c8.044-4.132 15.17-8.538 21.37-13.23 6.215-4.704 9.322-9.751 9.322-15.13zm193.7-13.99h-12.05v34.53c0 2.575 0.9437 4.807 2.831 6.695 1.899 1.877 4.143 2.815 6.744 2.815v18.31c-7.688 0-14.27-2.724-19.77-8.183-5.49-5.459-8.24-12.01-8.24-19.64v-34.53h-10.99v-18.49h10.99v-36.6h18.44v36.6h12.05v18.49zm-46.26 0h-2.923-2.923-3.096-2.935c-2.474 0-4.488 0.7668-6.019 2.289-1.542 1.522-2.302 3.285-2.302 5.287 0 0.824 0.1381 1.637 0.4373 2.461s0.7941 1.648 1.508 2.472c0.9437 1.167 1.922 2.289 2.923 3.342s1.979 2.117 2.923 3.17c2.371 2.472 4.109 5.23 5.236 8.286 1.116 3.044 1.623 6.157 1.508 9.327v0.8011 0.7897c-0.2417 3.17-1.07 6.283-2.486 9.339-1.416 3.044-3.372 5.688-5.846 7.92-4.016 3.525-8.252 5.551-12.68 6.077-4.431 0.5264-9.069 0.7897-13.91 0.7897h-1.588-1.772v-18.31h2.831 3.015 2.831 2.843 0.6215 0.6215c0.9437-0.1259 1.83-0.3204 2.658-0.618 0.8286-0.2976 1.531-0.7324 2.129-1.328 0.8171-0.8126 1.439-1.728 1.853-2.724 0.4143-1.03 0.6215-2.06 0.6215-3.113-0.1151-0.9384-0.3222-1.82-0.6215-2.644-0.2877-0.824-0.7366-1.579-1.323-2.289-0.4718-0.5837-0.9782-1.144-1.508-1.671-0.5294-0.5264-1.036-1.122-1.508-1.705-0.5869-0.4692-1.128-0.9957-1.6-1.591-0.4718-0.5837-0.9437-1.11-1.416-1.579-2.244-2.586-3.924-5.345-5.052-8.309-1.116-2.941-1.68-5.928-1.68-8.984 0-6.604 2.394-12.59 7.181-17.93 4.776-5.379 11.31-8.046 19.58-8.046h11.88v18.49zm-72.49 38.4c1.657-1.991 2.958-4.28 3.901-6.867 0.9437-2.586 1.473-5.23 1.6-7.931v-0.8812-0.6981c0-5.516-1.508-10.57-4.523-15.15-3.015-4.578-7.596-6.867-13.74-6.867-6.146 0-10.75 2.323-13.82 6.958-3.073 4.635-4.546 9.716-4.431 15.23 0 2.941 0.4373 5.848 1.335 8.721 0.8746 2.884 2.267 5.379 4.155 7.485 1.657 1.877 3.637 3.296 5.938 4.234 2.313 0.9384 4.638 1.35 7.009 1.225 2.359 0 4.661-0.4349 6.905-1.316 2.244-0.8812 4.143-2.266 5.674-4.143z"/><path style="fill:#0b0b0d;fill-rule:nonzero" class="fil2" d="m516.7 152.7h-18.44v-47.74c0-4.109-1.416-7.576-4.258-10.39-2.831-2.815-6.318-4.223-10.45-4.223-4.016 0-7.481 1.408-10.37 4.223-2.9 2.815-4.35 6.283-4.35 10.39v47.74h-18.44v-117.4h18.44v39.94c1.185-0.5837 2.394-1.087 3.637-1.499s2.451-0.7325 3.637-0.9728c1.174-0.3433 2.394-0.5837 3.637-0.6981 1.231-0.1145 2.451-0.1717 3.625-0.1717 8.746 0 16.49 3.079 23.22 9.27 6.733 6.169 10.1 14.09 10.1 23.72v47.85zm69.66-11.82c-3.303 3.754-7.147 6.626-11.52 8.572-4.373 1.934-8.862 3.021-13.48 3.25h-0.7941-0.7941-0.8056-0.7941c-4.603-0.2289-9.103-1.35-13.48-3.342-4.362-1.991-8.206-4.841-11.52-8.48-3.418-3.994-5.961-8.492-7.619-13.42-1.657-4.933-2.486-9.945-2.486-15 0-10.24 3.199-19.55 9.575-27.97 6.387-8.435 15.42-12.62 27.13-12.62 11.81 0 20.91 4.223 27.3 12.7 6.376 8.492 9.564 17.82 9.564 28.07-0.1151 5.047-1.001 10.04-2.658 14.91-1.646 4.875-4.189 9.339-7.619 13.33zm-13.82-12.13c1.646-1.991 2.946-4.28 3.89-6.867 0.9552-2.586 1.485-5.23 1.6-7.931v-0.8812-0.6981c0-5.528-1.508-10.57-4.523-15.15-3.004-4.578-7.584-6.867-13.73-6.867s-10.76 2.312-13.83 6.958c-3.073 4.635-4.546 9.716-4.431 15.23 0 2.941 0.4488 5.848 1.335 8.721s2.267 5.367 4.166 7.485c1.646 1.877 3.625 3.285 5.938 4.234 2.302 0.9385 4.638 1.35 6.997 1.225 2.359 0 4.672-0.4349 6.917-1.316 2.244-0.8812 4.132-2.266 5.674-4.143zm85.26-38.4h-12.5-12.5c-3.89 0-6.698 1.408-8.413 4.223s-2.751 5.928-3.107 9.339v1.053 1.064c0 4.463 0.6215 8.503 1.864 12.15 1.243 3.639 3.096 6.684 5.582 9.156 2.359 2.232 5.375 3.96 9.046 5.196 3.66 1.236 8.091 1.854 13.29 1.854h6.56v18.31h-6.56c-7.803 0-14.59-1.087-20.38-3.25-5.8-2.174-10.7-5.23-14.72-9.11-4.373-4.337-7.653-9.476-9.84-15.35-2.187-5.905-3.28-12.25-3.28-19.06 0-0.8583 0.0345-1.648 0.0921-2.415 0.0575-0.7553 0.0921-1.545 0.0921-2.369 0.4719-3.525 1.323-6.958 2.566-10.33 1.243-3.353 2.981-6.375 5.236-9.076 2.589-3.079 5.697-5.493 9.299-7.256 3.602-1.762 7.826-2.632 12.67-2.632h25v18.49z"/><g transform="matrix(1.527 0 0 1.584 -795.6 -64.44)"><path d="m643.1 188.4q-1.253 0.65-2.612 0.9808-1.359 0.3309-2.836 0.3309-4.408 0-6.984-2.458-2.576-2.47-2.576-6.689 0-4.231 2.576-6.689 2.576-2.47 6.984-2.47 1.477 0 2.836 0.3309t2.612 0.9808v3.652q-1.264-0.8627-2.493-1.264-1.229-0.4018-2.588-0.4018-2.434 0-3.829 1.56-1.394 1.56-1.394 4.302 0 2.73 1.394 4.29t3.829 1.56q1.359 0 2.588-0.4018t2.493-1.264v3.652z"/><path d="m653 178.8q-1.406 0-2.151 1.016-0.7327 1.004-0.7327 2.907t0.7327 2.919q0.7445 1.004 2.151 1.004 1.383 0 2.115-1.004 0.7327-1.016 0.7327-2.919t-0.7327-2.907q-0.7327-1.016-2.115-1.016zm0-3.025q3.415 0 5.33 1.844 1.926 1.844 1.926 5.105 0 3.262-1.926 5.105-1.914 1.844-5.33 1.844-3.427 0-5.365-1.844-1.926-1.844-1.926-5.105 0-3.262 1.926-5.105 1.938-1.844 5.365-1.844z"/><path d="m676.7 181.3v8.059h-4.254v-1.312-4.857q0-1.714-0.0827-2.363-0.0709-0.65-0.26-0.9572-0.2482-0.4136-0.6736-0.6381-0.4254-0.2363-0.969-0.2363-1.324 0-2.08 1.028-0.7563 1.016-0.7563 2.824v6.511h-4.231v-13.24h4.231v1.938q0.9572-1.158 2.033-1.702 1.075-0.5554 2.375-0.5554 2.293 0 3.474 1.406 1.194 1.406 1.194 4.089z"/><path d="m689.3 171v2.777h-2.34q-0.8981 0-1.253 0.3309-0.3545 0.3191-0.3545 1.123v0.9218h3.616v3.025h-3.616v10.21h-4.231v-10.21h-2.103v-3.025h2.103v-0.9218q0-2.163 1.205-3.191 1.205-1.04 3.734-1.04h3.238z"/><path d="m704.4 182.7v1.205h-9.891q0.1536 1.489 1.075 2.233 0.9218 0.7445 2.576 0.7445 1.335 0 2.73-0.39 1.406-0.4018 2.883-1.205v3.262q-1.501 0.5672-3.002 0.8508-1.501 0.2954-3.002 0.2954-3.592 0-5.59-1.82-1.985-1.832-1.985-5.129 0-3.238 1.95-5.093 1.962-1.855 5.389-1.855 3.12 0 4.987 1.879 1.879 1.879 1.879 5.022zm-4.349-1.406q0-1.205-0.709-1.938-0.6972-0.7445-1.832-0.7445-1.229 0-1.997 0.6972-0.7681 0.6854-0.9572 1.985h5.495z"/><path d="m718.2 176.5v3.451q-0.8627-0.5909-1.737-0.8745-0.8627-0.2836-1.796-0.2836-1.773 0-2.765 1.04-0.9808 1.028-0.9808 2.883t0.9808 2.895q0.9926 1.028 2.765 1.028 0.9926 0 1.879-0.2954 0.8981-0.2954 1.654-0.8745v3.462q-0.9926 0.3663-2.021 0.5436-1.016 0.1891-2.044 0.1891-3.581 0-5.601-1.832-2.021-1.844-2.021-5.117t2.021-5.105q2.021-1.844 5.601-1.844 1.04 0 2.044 0.1891 1.016 0.1773 2.021 0.5436z"/><path d="m732.6 176.5v3.451q-0.8627-0.5909-1.737-0.8745-0.8627-0.2836-1.796-0.2836-1.773 0-2.765 1.04-0.9808 1.028-0.9808 2.883t0.9808 2.895q0.9926 1.028 2.765 1.028 0.9926 0 1.879-0.2954 0.8981-0.2954 1.654-0.8745v3.462q-0.9926 0.3663-2.021 0.5436-1.016 0.1891-2.044 0.1891-3.581 0-5.601-1.832-2.021-1.844-2.021-5.117t2.021-5.105q2.021-1.844 5.601-1.844 1.04 0 2.044 0.1891 1.016 0.1773 2.021 0.5436zm-3.439 12.82q0.6854 0.7327 1.004 1.359 0.3309 0.6263 0.3309 1.182 0 1.123-0.7327 1.654-0.7209 0.5436-2.222 0.5436-0.5672 0-1.17-0.0827-0.6027-0.0709-1.217-0.2245l-0.0118-1.796q0.5909 0.1891 1.075 0.2718 0.4963 0.0945 0.8863 0.0945 0.6854 0 1.064-0.2718 0.39-0.2718 0.39-0.7445 0-0.3072-0.26-0.7918-0.2482-0.4845-0.7799-1.194h1.643z"/><path d="m742.6 178.8q-1.406 0-2.151 1.016-0.7327 1.004-0.7327 2.907t0.7327 2.919q0.7445 1.004 2.151 1.004 1.383 0 2.115-1.004 0.7327-1.016 0.7327-2.919t-0.7327-2.907q-0.7327-1.016-2.115-1.016zm0-3.025q3.415 0 5.33 1.844 1.926 1.844 1.926 5.105 0 3.262-1.926 5.105-1.914 1.844-5.33 1.844-3.427 0-5.365-1.844-1.926-1.844-1.926-5.105 0-3.262 1.926-5.105 1.938-1.844 5.365-1.844zm-0.0118-2.564-0.65-0.4372q-0.0473-0.0236-0.1182-0.0709-0.5554-0.3663-0.8508-0.3663-0.4254 0-0.65 0.3663-0.2245 0.3663-0.2245 1.064v0.0945h-1.643q0-1.607 0.6027-2.482 0.6145-0.8745 1.714-0.8745 0.4254 0 0.8508 0.1654 0.4372 0.1536 0.9218 0.5081l0.7209 0.5082q0.26 0.1773 0.4727 0.2718 0.2245 0.0945 0.4018 0.0945 0.4254 0 0.6618-0.3782 0.2363-0.3782 0.2363-1.052v-0.0945h1.643q0 1.607-0.6145 2.482-0.6027 0.8745-1.702 0.8745-0.4254 0-0.8272-0.1418-0.39-0.1418-0.9454-0.5318z"/><path d="m766.1 182.7v1.205h-9.891q0.1536 1.489 1.075 2.233 0.9218 0.7445 2.576 0.7445 1.335 0 2.73-0.39 1.406-0.4018 2.883-1.205v3.262q-1.501 0.5672-3.002 0.8508-1.501 0.2954-3.002 0.2954-3.592 0-5.59-1.82-1.985-1.832-1.985-5.129 0-3.238 1.95-5.093 1.962-1.855 5.389-1.855 3.12 0 4.987 1.879 1.879 1.879 1.879 5.022zm-4.349-1.406q0-1.205-0.709-1.938-0.6972-0.7445-1.832-0.7445-1.229 0-1.997 0.6972-0.7681 0.6854-0.9572 1.985h5.495z"/><path d="m779.7 176.5v3.214q-1.359-0.5672-2.623-0.8508t-2.387-0.2836q-1.205 0-1.796 0.3072-0.579 0.2954-0.579 0.9218 0 0.5082 0.4372 0.78 0.4491 0.2718 1.595 0.4018l0.7445 0.1064q3.25 0.4136 4.372 1.359 1.123 0.9454 1.123 2.966 0 2.115-1.56 3.179t-4.656 1.064q-1.312 0-2.718-0.2127-1.394-0.2009-2.872-0.6145v-3.214q1.264 0.6145 2.588 0.9218 1.335 0.3072 2.706 0.3072 1.241 0 1.867-0.3427 0.6263-0.3427 0.6263-1.016 0-0.5672-0.4372-0.839-0.4254-0.2836-1.714-0.4372l-0.7445-0.0945q-2.824-0.3545-3.959-1.312-1.134-0.9572-1.134-2.907 0-2.103 1.442-3.12 1.442-1.016 4.42-1.016 1.17 0 2.458 0.1773t2.801 0.5554z"/><path d="m805.4 182.7v1.205h-9.891q0.1536 1.489 1.075 2.233 0.9218 0.7445 2.576 0.7445 1.335 0 2.73-0.39 1.406-0.4018 2.883-1.205v3.262q-1.501 0.5672-3.002 0.8508-1.501 0.2954-3.002 0.2954-3.592 0-5.59-1.82-1.985-1.832-1.985-5.129 0-3.238 1.95-5.093 1.962-1.855 5.389-1.855 3.12 0 4.987 1.879 1.879 1.879 1.879 5.022zm-4.349-1.406q0-1.205-0.709-1.938-0.6972-0.7445-1.832-0.7445-1.229 0-1.997 0.6972-0.7681 0.6854-0.9572 1.985h5.495z"/><path d="m829.4 172.3v3.734q-1.454-0.65-2.836-0.9808-1.383-0.3309-2.612-0.3309-1.631 0-2.411 0.4491-0.78 0.449-0.78 1.394 0 0.709 0.52 1.111 0.5318 0.39 1.914 0.6736l1.938 0.39q2.943 0.5909 4.183 1.796 1.241 1.205 1.241 3.427 0 2.919-1.737 4.349-1.725 1.418-5.282 1.418-1.678 0-3.368-0.3191t-3.38-0.9454v-3.841q1.69 0.8981 3.262 1.359 1.584 0.4491 3.049 0.4491 1.489 0 2.281-0.4963 0.7918-0.4963 0.7918-1.418 0-0.8272-0.5436-1.276-0.5318-0.4491-2.139-0.8036l-1.761-0.39q-2.647-0.5672-3.876-1.808-1.217-1.241-1.217-3.344 0-2.635 1.702-4.053t4.892-1.418q1.454 0 2.99 0.2245 1.536 0.2127 3.179 0.65z"/><path d="m847.6 182.7v1.205h-9.891q0.1536 1.489 1.075 2.233 0.9218 0.7445 2.576 0.7445 1.335 0 2.73-0.39 1.406-0.4018 2.883-1.205v3.262q-1.501 0.5672-3.002 0.8508-1.501 0.2954-3.002 0.2954-3.592 0-5.59-1.82-1.985-1.832-1.985-5.129 0-3.238 1.95-5.093 1.962-1.855 5.389-1.855 3.12 0 4.987 1.879 1.879 1.879 1.879 5.022zm-4.349-1.406q0-1.205-0.709-1.938-0.6972-0.7445-1.832-0.7445-1.229 0-1.997 0.6972-0.7681 0.6854-0.9572 1.985h5.495z"/><path d="m860.7 179.7q-0.5554-0.26-1.111-0.3782-0.5436-0.13-1.099-0.13-1.631 0-2.517 1.052-0.8745 1.04-0.8745 2.99v6.098h-4.231v-13.24h4.231v2.174q0.8154-1.3 1.867-1.891 1.064-0.6027 2.541-0.6027 0.2127 0 0.4609 0.0236 0.2482 0.0118 0.7209 0.0709l0.0118 3.829z"/><path d="m862.8 176.1h4.231v13.24h-4.231v-13.24zm0-5.152h4.231v3.451h-4.231v-3.451z"/><path d="m880.1 187.1q-0.8745 1.158-1.926 1.702-1.052 0.5436-2.434 0.5436-2.423 0-4.006-1.903-1.584-1.914-1.584-4.869 0-2.966 1.584-4.857 1.584-1.903 4.006-1.903 1.383 0 2.434 0.5436 1.052 0.5436 1.926 1.714v-1.962h4.254v11.9q0 3.191-2.021 4.869-2.009 1.69-5.838 1.69-1.241 0-2.399-0.1891t-2.328-0.579v-3.297q1.111 0.6381 2.174 0.9454 1.064 0.3191 2.139 0.3191 2.08 0 3.049-0.9099t0.969-2.848v-0.9099zm-2.789-8.237q-1.312 0-2.044 0.969-0.7327 0.969-0.7327 2.742 0 1.82 0.709 2.765 0.709 0.9336 2.068 0.9336 1.324 0 2.056-0.969 0.7327-0.969 0.7327-2.73 0-1.773-0.7327-2.742t-2.056-0.969z"/><path d="m898.3 179.7q-0.5554-0.26-1.111-0.3782-0.5436-0.13-1.099-0.13-1.631 0-2.517 1.052-0.8745 1.04-0.8745 2.99v6.098h-4.231v-13.24h4.231v2.174q0.8154-1.3 1.867-1.891 1.064-0.6027 2.541-0.6027 0.2127 0 0.4609 0.0236 0.2482 0.0118 0.7209 0.0709l0.0118 3.829z"/><path d="m906.3 183.4q-1.324 0-1.997 0.4491-0.6618 0.4491-0.6618 1.324 0 0.8036 0.5318 1.264 0.5436 0.4491 1.501 0.4491 1.194 0 2.009-0.8508 0.8154-0.8627 0.8154-2.151v-0.4845h-2.198zm6.464-1.595v7.551h-4.266v-1.962q-0.8508 1.205-1.914 1.761-1.064 0.5436-2.588 0.5436-2.056 0-3.344-1.194-1.276-1.205-1.276-3.12 0-2.328 1.595-3.415 1.607-1.087 5.034-1.087h2.493v-0.3309q0-1.004-0.7918-1.465-0.7918-0.4727-2.47-0.4727-1.359 0-2.529 0.2718t-2.174 0.8154v-3.226q1.359-0.3309 2.73-0.4963 1.371-0.1773 2.742-0.1773 3.581 0 5.164 1.418 1.595 1.406 1.595 4.585z"/><path d="m926.4 171h4.266v3.451h-4.266v-3.451zm-0.8745 0v2.777h-2.34q-0.8863 0-1.229 0.3309-0.3427 0.3191-0.3427 1.123v0.9218h9.052v13.24h-4.266v-10.21h-4.786v10.21h-4.266v-10.21h-2.08v-3.025h2.08v-0.9218q0-2.163 1.205-3.191 1.205-1.04 3.734-1.04h3.238z"/><path d="m940.7 183.4q-1.324 0-1.997 0.4491-0.6618 0.4491-0.6618 1.324 0 0.8036 0.5318 1.264 0.5436 0.4491 1.501 0.4491 1.194 0 2.009-0.8508 0.8154-0.8627 0.8154-2.151v-0.4845h-2.198zm6.464-1.595v7.551h-4.266v-1.962q-0.8508 1.205-1.914 1.761-1.064 0.5436-2.588 0.5436-2.056 0-3.344-1.194-1.276-1.205-1.276-3.12 0-2.328 1.595-3.415 1.607-1.087 5.034-1.087h2.493v-0.3309q0-1.004-0.7918-1.465-0.7918-0.4727-2.47-0.4727-1.359 0-2.529 0.2718t-2.174 0.8154v-3.226q1.359-0.3309 2.73-0.4963 1.371-0.1773 2.742-0.1773 3.581 0 5.164 1.418 1.595 1.406 1.595 4.585z"/></g></g></svg>
